Coordinates
version=1
nRows=6
nColumns=63
inDegrees=yes

Units are S.I. units (second, meters, Newtons, ...)
If the header above contains a line with 'inDegrees', this indicates whether rotational values are in degrees (yes) or radians (no).

endheader
time	pelvis_tilt	pelvis_list	pelvis_rotation	pelvis_tx	pelvis_ty	pelvis_tz	hip_flexion_r	hip_adduction_r	hip_rotation_r	knee_angle_r	knee_angle_r_beta	ankle_angle_r	subtalar_angle_r	mtp_angle_r	hip_flexion_l	hip_adduction_l	hip_rotation_l	knee_angle_l	knee_angle_l_beta	ankle_angle_l	subtalar_angle_l	mtp_angle_l	L5_S1_Flex_Ext	L5_S1_Lat_Bending	L5_S1_axial_rotation	L4_L5_Flex_Ext	L4_L5_Lat_Bending	L4_L5_axial_rotation	L3_L4_Flex_Ext	L3_L4_Lat_Bending	L3_L4_axial_rotation	L2_L3_Flex_Ext	L2_L3_Lat_Bending	L2_L3_axial_rotation	L1_L2_Flex_Ext	L1_L2_Lat_Bending	L1_L2_axial_rotation	L1_T12_Flex_Ext	L1_T12_Lat_Bending	L1_T12_axial_rotation	Abs_r3	Abs_r2	Abs_r1	Abs_t1	Abs_t2	neck_flexion	neck_bending	neck_rotation	arm_flex_r	arm_add_r	arm_rot_r	elbow_flex_r	pro_sup_r	wrist_flex_r	wrist_dev_r	arm_flex_l	arm_add_l	arm_rot_l	elbow_flex_l	pro_sup_l	wrist_flex_l	wrist_dev_l
      3.67796610	     -5.19509829	     -0.32516652	     98.24340665	      0.08933789	      0.49457389	      0.80496113	     -3.31004076	      0.29062961	     -9.36455714	      4.54039809	      0.07924490	     33.78576372	     14.02218882	      0.00000000	     -0.84471002	      1.06019282	     10.77595400	      8.59625527	      0.15003296	     27.82364075	     -9.45399786	      0.00000000	     -0.04596079	     -0.42373616	     -1.29594823	     -0.08535378	     -0.56356909	     -1.37694499	     -0.07550898	     -1.03027209	     -1.37694499	     -0.05252859	     -1.03027209	     -1.13395470	     -0.04267919	     -0.86408277	     -1.05295794	     -0.02626200	     -0.65636731	     -0.97196117	     -0.32829332	     -4.79338814	     -7.20767527	      0.00000000	      0.00000000	     18.05588326	      0.81331139	     14.97167941	     11.43722726	     -7.12156920	     63.98738016	     26.22819664	     68.50165853	     -0.99512814	     -0.64101959	      2.40173494	    -13.57753813	     39.42323302	     41.72805248	     89.01829201	     -7.56082097	     15.38675950
      3.69491525	     -5.10004543	     -0.21915506	     98.10251273	      0.08950627	      0.49457652	      0.80530216	     -3.41334686	      0.41867594	     -8.82107320	      4.43389494	      0.07738607	     33.72280673	     13.56381114	      0.00000000	     -0.70989456	      0.81954174	      8.45239985	      8.97569589	      0.15665545	     29.05977298	     -6.58142481	      0.00000000	     -0.05960602	     -0.41425617	     -1.26529319	     -0.11069434	     -0.55096070	     -1.34437402	     -0.09792673	     -1.00722245	     -1.34437402	     -0.06812372	     -1.00722245	     -1.10713154	     -0.05535015	     -0.84475118	     -1.02805072	     -0.03405888	     -0.64168281	     -0.94896990	     -0.42575985	     -4.68614864	     -7.03718116	      0.00000000	      0.00000000	     17.96272929	      0.74533337	     14.75469535	     11.36469335	     -7.19359946	     63.92278711	     26.35954160	     67.16800921	     -1.03532464	     -0.51541527	      2.59332595	    -13.55037302	     40.10718491	     41.43223972	     89.00309068	     -8.19643721	     14.74122716
      3.71186441	     -5.13735727	     -0.26139083	     98.25064992	      0.08915667	      0.49444796	      0.80531086	     -3.32319577	      0.33380884	     -9.78463852	      4.52814280	      0.07903100	     34.01886515	     14.63358792	      0.00000000	     -0.72266880	      0.92164620	      9.19535952	      8.75455945	      0.15279589	     29.11880805	     -7.55211230	      0.00000000	     -0.05171797	     -0.42110454	     -1.27969411	     -0.09604545	     -0.56006904	     -1.35967500	     -0.08496746	     -1.02387357	     -1.35967500	     -0.05910847	     -1.02387357	     -1.11973235	     -0.04802531	     -0.85871637	     -1.03975147	     -0.02955165	     -0.65229093	     -0.95977059	     -0.36941631	     -4.76361876	     -7.11727475	      0.00000000	      0.00000000	     17.94286531	      0.75975293	     14.51723375	     10.58431670	     -7.07172264	     59.89799377	     26.72565357	     71.40034118	     -0.69737920	      0.16906942	      2.48968963	    -13.48627288	     39.71078473	     41.47094139	     89.00108594	     -7.72585436	     15.26922478
      3.72881356	     -5.07605424	     -0.24865988	     98.20554609	      0.08932894	      0.49446508	      0.80551861	     -3.27453389	      0.40808637	     -9.63774514	      4.53046368	      0.07907151	     34.13061213	     14.58822354	      0.00000000	     -0.48731214	      0.71583967	      7.06572058	      9.07354714	      0.15836327	     30.22950202	     -4.81317933	      0.00000000	     -0.05556077	     -0.41619805	     -1.26590761	     -0.10318191	     -0.55354341	     -1.34502683	     -0.09128079	     -1.01194394	     -1.34502683	     -0.06350041	     -1.01194394	     -1.10766916	     -0.05159373	     -0.84871106	     -1.02854993	     -0.03174743	     -0.64469078	     -0.94943071	     -0.39686505	     -4.70811557	     -7.04059834	      0.00000000	      0.00000000	     17.94225880	      0.78501148	     14.38249799	     10.19449488	     -6.97675157	     57.73758451	     26.93253348	     73.46917704	     -0.62555667	      0.57860868	      2.48083089	    -13.42602464	     39.59224984	     41.35353450	     88.96358271	     -7.71634261	     15.30792223
      3.74576271	     -5.06609761	     -0.26853509	     98.39551351	      0.08914505	      0.49450471	      0.80559797	     -3.19677287	      0.42076506	    -10.03896200	      4.60876793	      0.08043817	     34.30044852	     14.87404838	      0.00000000	     -0.38194724	      0.66880461	      6.79535253	      9.05391617	      0.15802065	     30.74742419	     -4.17285534	      0.00000000	     -0.05572934	     -0.41634429	     -1.31264798	     -0.10349496	     -0.55373790	     -1.39468847	     -0.09155773	     -1.01229950	     -1.39468847	     -0.06369306	     -1.01229950	     -1.14856698	     -0.05175027	     -0.84900927	     -1.06652648	     -0.03184375	     -0.64491730	     -0.98448598	     -0.39806911	     -4.70976986	     -7.30055425	      0.00000000	      0.00000000	     18.01712189	      0.88706939	     14.49353977	     10.06450044	     -6.89191760	     56.87679663	     27.00816375	     74.40992152	     -0.57792571	      0.80498522	      2.27649868	    -13.34659129	     38.93488315	     41.33144706	     88.93469908	     -7.54205137	     15.47350256
      3.76271186	     -4.98198278	     -0.20175880	     98.32492695	      0.08919324	      0.49478795	      0.80609278	     -3.11845686	      0.49316269	     -9.95606361	      4.77086586	      0.08326732	     34.32695468	     14.82901057	      0.00000000	     -0.25148034	      0.50146928	      5.68028044	      9.23757544	      0.16122611	     31.51898901	     -2.74217930	      0.00000000	     -0.07554689	     -0.40128418	     -1.29343058	     -0.14029813	     -0.53370796	     -1.37426999	     -0.12411599	     -0.97568236	     -1.37426999	     -0.08634254	     -0.97568236	     -1.13175176	     -0.07015284	     -0.81829870	     -1.05091235	     -0.04316749	     -0.62158920	     -0.97007294	     -0.53962390	     -4.53940691	     -7.19367286	      0.00000000	      0.00000000	     18.14782908	      0.65171026	     14.51483568	     10.22967988	     -6.94684320	     57.41806770	     26.94687300	     72.81977042	     -0.69943568	      0.95319504	      2.45414611	    -13.19391732	     39.23623632	     40.89757681	     88.88186737	     -8.05514667	     14.96652490
